<svg width="50" height="27" viewBox="0 0 50 27" fill="none" xmlns="http://www.w3.org/2000/svg">
<g clip-path="url(#clip0_1935_25394)">
<g clip-path="url(#clip1_1935_25394)">
<g clip-path="url(#clip2_1935_25394)">
<g clip-path="url(#clip3_1935_25394)">
<g clip-path="url(#clip4_1935_25394)">
<g clip-path="url(#clip5_1935_25394)">
<g clip-path="url(#clip6_1935_25394)">
<path d="M14.1439 14.8417V18.45H16.268C18.261 18.45 19.2575 17.8486 19.2575 16.6459C19.2575 15.4431 18.2698 14.8417 16.2943 14.8417H14.1439ZM16.2943 8.55014H14.1439V12.0429H15.6387C16.6876 12.0429 17.4778 11.8732 18.0093 11.534C18.5442 11.1947 18.8117 10.7476 18.8117 10.1924C18.8117 9.09757 17.9726 8.55014 16.2943 8.55014ZM10.1055 21.2951V5.70508H16.9761C18.9166 5.70508 20.3939 6.10909 21.4079 6.91712C22.4218 7.72824 22.9288 8.75832 22.9288 10.0074C22.9288 10.8247 22.6841 11.5417 22.1946 12.1585C21.7051 12.7753 21.067 13.1917 20.2802 13.4076C22.3257 13.9473 23.3484 15.1655 23.3484 17.0622C23.3484 18.2958 22.8467 19.309 21.8432 20.1016C20.8362 20.8973 19.4673 21.2951 17.7366 21.2951H10.1055ZM32.0022 8.5964H30.0092V12.9912H31.9235C33.6718 12.9912 34.5459 12.2356 34.5459 10.7244C34.5459 10.0613 34.3186 9.54013 33.8641 9.16079C33.4096 8.78453 32.7889 8.5964 32.0022 8.5964ZM39.8955 21.2951H35.0704L31.2417 15.8825H30.0092V21.2951H25.9708V5.70508H32.0809C34.0564 5.70508 35.6421 6.16769 36.8379 7.09291C38.0372 8.01814 38.6368 9.22093 38.6368 10.7013C38.6368 12.9218 37.5616 14.4562 35.4113 15.3043L39.8955 21.2951Z" fill="#0E4D92"/>
</g>
</g>
</g>
</g>
</g>
</g>
</g>
<path d="M20.8613 2.02448C23.5658 1.33429 26.4366 1.33429 29.141 2.02448H27.5471C25.8657 1.73524 24.1367 1.73524 22.4552 2.02448H20.8613ZM20.8613 24.9753C23.5658 25.6655 26.4366 25.6655 29.141 24.9753H27.5471C25.8657 25.2645 24.1367 25.2645 22.4552 24.9753H20.8613Z" fill="#0E4D92"/>
<defs>
<clipPath id="clip0_1935_25394">
<rect width="29.7901" height="15.59" fill="white" transform="translate(10.1055 5.70508)"/>
</clipPath>
<clipPath id="clip1_1935_25394">
<rect width="29.7901" height="15.59" fill="white" transform="translate(10.1055 5.70508)"/>
</clipPath>
<clipPath id="clip2_1935_25394">
<rect width="29.7901" height="15.59" fill="white" transform="translate(10.1055 5.70508)"/>
</clipPath>
<clipPath id="clip3_1935_25394">
<rect width="29.7901" height="15.59" fill="white" transform="translate(10.1055 5.70508)"/>
</clipPath>
<clipPath id="clip4_1935_25394">
<rect width="29.7901" height="15.59" fill="white" transform="translate(10.1055 5.70508)"/>
</clipPath>
<clipPath id="clip5_1935_25394">
<rect width="29.7901" height="15.59" fill="white" transform="translate(10.1055 5.70508)"/>
</clipPath>
<clipPath id="clip6_1935_25394">
<rect width="29.7901" height="15.59" fill="white" transform="translate(10.1055 5.70508)"/>
</clipPath>
</defs>
</svg>
