<svg width="25" height="24" viewBox="0 0 25 24" fill="none" xmlns="http://www.w3.org/2000/svg">
<g clip-path="url(#clip0_1935_25007)">
<path d="M12.5005 19.02C4.69222 19.02 1.77922 12.1717 1.75072 12.1027C1.72372 12.0367 1.72372 11.9625 1.75072 11.8972C1.77922 11.8282 4.69222 4.97998 12.5005 4.97998C20.308 4.97998 23.2217 11.8275 23.2502 11.8972C23.2772 11.9632 23.2772 12.0375 23.2502 12.1027C23.2217 12.1717 20.308 19.02 12.5005 19.02ZM2.29672 12C2.68747 12.8377 5.57872 18.48 12.5005 18.48C19.4222 18.48 22.3135 12.8385 22.7042 12C22.3135 11.1615 19.4222 5.51998 12.5005 5.51998C5.57872 5.51998 2.68747 11.1615 2.29672 12ZM12.5005 17.52C9.45697 17.52 6.98047 15.0435 6.98047 12C6.98047 8.95648 9.45697 6.47998 12.5005 6.47998C15.5447 6.47998 18.0205 8.95648 18.0205 12C18.0205 15.0442 15.5447 17.52 12.5005 17.52ZM12.5005 7.01998C9.75472 7.01998 7.52047 9.25423 7.52047 12C7.52047 14.7457 9.75472 16.98 12.5005 16.98C15.2462 16.98 17.4805 14.7457 17.4805 12C17.4805 9.25423 15.2462 7.01998 12.5005 7.01998ZM12.5005 14.895C10.9045 14.895 9.60547 13.596 9.60547 12C9.60547 10.404 10.9037 9.10498 12.5005 9.10498C14.0965 9.10498 15.3955 10.4032 15.3955 12C15.3955 13.596 14.0965 14.895 12.5005 14.895ZM12.5005 9.64498C11.2022 9.64498 10.1455 10.7017 10.1455 12C10.1455 13.2982 11.2022 14.355 12.5005 14.355C13.7987 14.355 14.8555 13.299 14.8555 12C14.8555 10.701 13.7987 9.64498 12.5005 9.64498Z" fill="black"/>
</g>
<defs>
<clipPath id="clip0_1935_25007">
<rect width="24" height="24" fill="white" transform="translate(0.5)"/>
</clipPath>
</defs>
</svg>
