<svg width="17" height="20" viewBox="0 0 17 20" fill="none" xmlns="http://www.w3.org/2000/svg">
<path d="M0.5 14C0.776142 14 1 14.2239 1 14.5V17.501C1 18.3294 1.67157 19.001 2.5 19.001H13.5C14.3284 19.001 15 18.3294 15 17.501V5.001H11.5C11.2239 5.001 11 4.77714 11 4.501V1.001H2.5C1.67157 1.001 1 1.67258 1 2.501V4.5C1 4.77614 0.776142 5 0.5 5C0.223858 5 0 4.77614 0 4.5V2.501C0 1.12029 1.11929 0.00100238 2.5 0.00100238H11.472C11.6048 -0.00741709 11.7429 0.036842 11.8536 0.147449L15.8536 4.14745C15.9642 4.25806 16.0084 4.39623 16 4.52898V17.501C16 18.8817 14.8807 20.001 13.5 20.001H2.5C1.11929 20.001 0 18.8817 0 17.501V14.5C0 14.2239 0.223858 14 0.5 14ZM12 1.70811V4.001H14.2929L12 1.70811ZM8.29289 9L6.14645 6.85355C5.95118 6.65829 5.95118 6.34171 6.14645 6.14645C6.34171 5.95118 6.65829 5.95118 6.85355 6.14645L9.85355 9.14645C10.0488 9.34171 10.0488 9.65829 9.85355 9.85355L6.85355 12.8536C6.65829 13.0488 6.34171 13.0488 6.14645 12.8536C5.95118 12.6583 5.95118 12.3417 6.14645 12.1464L8.29289 10H0.5C0.223858 10 0 9.77614 0 9.5C0 9.22386 0.223858 9 0.5 9H8.29289Z" fill="#FBFBFD"/>
</svg>
