<svg width="25" height="24" viewBox="0 0 25 24" fill="none" xmlns="http://www.w3.org/2000/svg">
<path d="M17.8818 23.597H7.22762C5.83 23.597 4.68817 22.5422 4.61334 21.2141L4.61303 21.2077L3.64319 4.49513H21.4665L20.4956 21.2098C20.4194 22.5432 19.2784 23.5966 17.8818 23.597H17.8818L17.8818 23.597ZM4.79746 5.54587L5.70292 21.151C5.74586 21.9301 6.41221 22.5462 7.228 22.5463H17.8829C18.698 22.5463 19.3639 21.9313 19.4078 21.1568L19.408 21.1531L20.3123 5.54585L4.79746 5.54587ZM22.9731 5.54587H2.13672V4.49515H22.9731V5.54587ZM10.4713 0.481445H14.6385C16.0898 0.483251 17.2657 1.61587 17.2676 3.01348V5.54587H7.84216V3.01366C7.84403 1.61589 9.02001 0.483251 10.4711 0.481445H10.4713ZM16.1767 4.49515V3.01364C16.1755 2.19592 15.4876 1.53336 14.6387 1.53216H10.4712C9.62223 1.53334 8.93432 2.1959 8.93308 3.01352V4.49513L16.1767 4.49515ZM13.1004 20.0666H12.0095V8.02554H13.1004V20.0666ZM17.2676 20.0666H16.1768V8.02554H17.2676V20.0666ZM8.93308 20.0666H7.84216V8.02554H8.93308V20.0666Z" fill="white"/>
</svg>
