<svg width="56" height="71" viewBox="0 0 56 71" fill="none" xmlns="http://www.w3.org/2000/svg">
<path d="M1.74991 49.4975C2.71636 49.4975 3.49982 50.281 3.49982 51.2475V61.7504C3.49982 64.6498 5.85021 67.0002 8.74956 67.0002H47.2476C50.147 67.0002 52.4974 64.6498 52.4974 61.7504V18.0026H40.248C39.2815 18.0026 38.4981 17.2192 38.4981 16.2527V4.00333H8.74956C5.85021 4.00333 3.49982 6.35372 3.49982 9.25307V16.2492C3.49982 17.2157 2.71636 17.9991 1.74991 17.9991C0.783462 17.9991 0 17.2157 0 16.2492V9.25307C0 4.42082 3.91731 0.503508 8.74956 0.503508H40.1501C40.6147 0.474041 41.0983 0.62894 41.4854 1.01605L55.4847 15.0153C55.8718 15.4024 56.0267 15.886 55.9972 16.3506V61.7504C55.9972 66.5827 52.0799 70.5 47.2476 70.5H8.74956C3.91731 70.5 0 66.5827 0 61.7504V51.2475C0 50.281 0.783462 49.4975 1.74991 49.4975ZM41.9979 6.47808V14.5028H50.0226L41.9979 6.47808ZM29.0237 31.9984L21.5115 24.4862C20.8281 23.8029 20.8281 22.6949 21.5115 22.0115C22.1949 21.3281 23.3029 21.3281 23.9862 22.0115L34.4857 32.511C35.1691 33.1943 35.1691 34.3023 34.4857 34.9857L23.9862 45.4852C23.3029 46.1686 22.1949 46.1686 21.5115 45.4852C20.8281 44.8018 20.8281 43.6938 21.5115 43.0104L29.0237 35.4982H1.74991C0.783462 35.4982 0 34.7148 0 33.7483C0 32.7819 0.783462 31.9984 1.74991 31.9984H29.0237Z" fill="#051127"/>
</svg>
